<?xml version="1.0" encoding="utf-8"?>
<!-- Svg Vector Icons : http://www.onlinewebfonts.com/icon -->
<!DOCTYPE svg PUBLIC "-//W3C//DTD SVG 1.1//EN" "http://www.w3.org/Graphics/SVG/1.1/DTD/svg11.dtd">
<svg version="1.1" xmlns="http://www.w3.org/2000/svg" xmlns:xlink="http://www.w3.org/1999/xlink" x="0px" y="0px" viewBox="0 0 1000 1000" enable-background="new 0 0 1000 1000" xml:space="preserve">
<metadata> Svg Vector Icons : http://www.onlinewebfonts.com/icon </metadata>
<g><g><path d="M228.3,93.1c-0.5,0.4-0.9,0.8-1.3,1.2c2.8-2.9,6.8-6.1,9.4-7.8C313.1,36.6,401.7,9.9,500.1,9.9c92,0,178.1,25.4,251.7,69.6c5.3,3.2,19.9,13.1,27.4,22.2v0c-71-78.2-279.5,89.6-279.5,89.6c-72.1-55.6-138.5-93.5-187.9-107C270.4,73.1,241.8,82.5,228.3,93.1z M859.5,167.1c-2.2-2.4-4.5-4.6-6.7-7.1c-17.9-19.7-40-24.5-59.9-23.2c-18.1,5.7-101.7,35.8-204.7,133.1c0,0,116,112.8,187,228.1c71,115.3,113.4,205.9,87.3,331.7C941.7,742.6,990,627,990,500C990,371.4,940.5,254.5,859.5,167.1z M682.5,547.2c-31.5-35.3-78.3-85.9-140.1-147.4c-13.5-13.4-27.8-27.5-42.8-42c0,0-22.6,22.6-52,52.3v0c-37.6,38-86.4,87.6-113.5,116.6c-48.2,51.5-186.4,213.1-194.1,303.7c0,0-30.7-71.9,36.7-237.6c44.1-108.4,177.2-271.1,232.8-324.1c0,0-50.8-55.9-114.6-94.5l-0.4-0.1c0,0-0.7-0.6-1.9-1.3c-30.7-18.3-64.1-32.4-96.4-34.2c-32.9,2.3-53.7,26.4-53.7,26.4C60.3,252.5,10,370.3,10,500c0,270.6,219.4,490.1,490.1,490.1c143.6,0,272.9-61.9,362.5-160.4c0-0.2-10.3-64.8-76.3-157.4C770.8,650.5,714.2,582.8,682.5,547.2z"/></g><g></g><g></g><g></g><g></g><g></g><g></g><g></g><g></g><g></g><g></g><g></g><g></g><g></g><g></g><g></g></g>
</svg>